{
  "asset": {
    "version": "2.0",
    "generator": "THREE.GLTFExporter"
  },
  "scenes": [
    {
      "nodes": [
        0
      ]
    }
  ],
  "scene": 0,
  "nodes": [
    {
      "children": [
        7
      ],
      "matrix": [
        0.01,
        0,
        0,
        0,
        0,
        0.01,
        0,
        0,
        0,
        0,
        0.01,
        0,
        0,
        0,
        0,
        1
      ]
    },
    {
      "matrix": [
        0.9440872695302849,
        0.2235961923322781,
        -0.2422890222138771,
        0,
        -0.17101007166283433,
        -0.2961981327260237,
        -0.9396926207859083,
        0,
        -0.2818772479302334,
        0.9285857036074397,
        -0.2413996854910011,
        0,
        56.4473334322405,
        158.53689932393593,
        130.78129289666396,
        1.0000000000000002
      ],
      "name": "Cube 2",
      "mesh": 0
    },
    {
      "matrix": [
        0.8660254037844383,
        -0.4999999999999998,
        6.59546609705562e-17,
        0,
        -0.1710100716628343,
        -0.2961981327260238,
        -0.9396926207859085,
        0,
        0.4698463103929546,
        0.8137976813493739,
        -0.3420201433256688,
        0,
        9.484344587317707,
        325.95972129698237,
        -76.24089690391403,
        1.0000000000000002
      ],
      "name": "Cube",
      "mesh": 1
    },
    {
      "matrix": [
        0.5212001024929999,
        -0.1588117481724681,
        -0.8385280447329659,
        0,
        0.2914734119901239,
        0.9565789304092138,
        0,
        0,
        0.80211826014879,
        -0.2444086302477248,
        0.544858438675872,
        0,
        0,
        0,
        0,
        1
      ],
      "name": "Directional Light",
      "extensions": {
        "KHR_lights_punctual": {
          "light": 0
        }
      }
    },
    {
      "matrix": [
        1,
        0,
        0,
        0,
        0,
        1,
        0,
        0,
        0,
        0,
        1,
        0,
        0.05078125,
        15.561362994769294,
        0,
        1
      ],
      "name": "Floor",
      "mesh": 2
    },
    {
      "matrix": [
        0.10505442233919038,
        0,
        -0.9944664742197089,
        0,
        -0.2960644695873842,
        0.9546557729982265,
        -0.03127594809273562,
        0,
        0.949373160667037,
        0.29771186587228704,
        0.10029081076510193,
        0,
        895.7257260221608,
        359.86336894691993,
        91.78674233534261,
        1
      ],
      "camera": 0
    },
    {
      "matrix": [
        1,
        0,
        0,
        0,
        0,
        1,
        0,
        0,
        0,
        0,
        1,
        0,
        0,
        1,
        0,
        1
      ],
      "name": "Default Ambient Light"
    },
    {
      "name": "Scene",
      "children": [
        1,
        2,
        3,
        4,
        5,
        6
      ]
    }
  ],
  "bufferViews": [
    {
      "buffer": 0,
      "byteOffset": 0,
      "byteLength": 7200,
      "target": 34962,
      "byteStride": 12
    },
    {
      "buffer": 0,
      "byteOffset": 7200,
      "byteLength": 7200,
      "target": 34962,
      "byteStride": 12
    },
    {
      "buffer": 0,
      "byteOffset": 14400,
      "byteLength": 4800,
      "target": 34962,
      "byteStride": 8
    },
    {
      "buffer": 0,
      "byteOffset": 19200,
      "byteLength": 4296,
      "target": 34963
    },
    {
      "buffer": 0,
      "byteOffset": 23496,
      "byteLength": 7200,
      "target": 34962,
      "byteStride": 12
    },
    {
      "buffer": 0,
      "byteOffset": 30696,
      "byteLength": 7200,
      "target": 34962,
      "byteStride": 12
    },
    {
      "buffer": 0,
      "byteOffset": 37896,
      "byteLength": 4800,
      "target": 34962,
      "byteStride": 8
    },
    {
      "buffer": 0,
      "byteOffset": 42696,
      "byteLength": 4296,
      "target": 34963
    },
    {
      "buffer": 0,
      "byteOffset": 46992,
      "byteLength": 7200,
      "target": 34962,
      "byteStride": 12
    },
    {
      "buffer": 0,
      "byteOffset": 54192,
      "byteLength": 7200,
      "target": 34962,
      "byteStride": 12
    },
    {
      "buffer": 0,
      "byteOffset": 61392,
      "byteLength": 4800,
      "target": 34962,
      "byteStride": 8
    },
    {
      "buffer": 0,
      "byteOffset": 66192,
      "byteLength": 4296,
      "target": 34963
    }
  ],
  "buffers": [
    {
      "byteLength": 70488,
      "uri": "data:application/octet-stream;base64,"
    }
  ],
  "accessors": [
    {
      "bufferView": 0,
      "componentType": 5126,
      "count": 600,
      "max": [
        41.79829788208008,
        41.79829788208008,
        41.79829788208008
      ],
      "min": [
        -41.79829788208008,
        -41.79829788208008,
        -41.79829788208008
      ],
      "type": "VEC3"
    },
    {
      "bufferView": 1,
      "componentType": 5126,
      "count": 600,
      "max": [
        1,
        1,
        1
      ],
      "min": [
        -1,
        -1,
        -1
      ],
      "type": "VEC3"
    },
    {
      "bufferView": 2,
      "componentType": 5126,
      "count": 600,
      "max": [
        1,
        1
      ],
      "min": [
        0,
        0
      ],
      "type": "VEC2"
    },
    {
      "bufferView": 3,
      "componentType": 5123,
      "count": 2148,
      "max": [
        599
      ],
      "min": [
        0
      ],
      "type": "SCALAR"
    },
    {
      "bufferView": 4,
      "componentType": 5126,
      "count": 600,
      "max": [
        86.22341918945312,
        86.22341918945312,
        86.22341918945312
      ],
      "min": [
        -86.22341918945312,
        -86.22341918945312,
        -86.22341918945312
      ],
      "type": "VEC3"
    },
    {
      "bufferView": 5,
      "componentType": 5126,
      "count": 600,
      "max": [
        1,
        1,
        1
      ],
      "min": [
        -1,
        -1,
        -1
      ],
      "type": "VEC3"
    },
    {
      "bufferView": 6,
      "componentType": 5126,
      "count": 600,
      "max": [
        1,
        1
      ],
      "min": [
        0,
        0
      ],
      "type": "VEC2"
    },
    {
      "bufferView": 7,
      "componentType": 5123,
      "count": 2148,
      "max": [
        599
      ],
      "min": [
        0
      ],
      "type": "SCALAR"
    },
    {
      "bufferView": 8,
      "componentType": 5126,
      "count": 600,
      "max": [
        232.66566467285156,
        15.561363220214844,
        232.66566467285156
      ],
      "min": [
        -232.66566467285156,
        -15.561363220214844,
        -232.66566467285156
      ],
      "type": "VEC3"
    },
    {
      "bufferView": 9,
      "componentType": 5126,
      "count": 600,
      "max": [
        1,
        1,
        1
      ],
      "min": [
        -1,
        -1,
        -1
      ],
      "type": "VEC3"
    },
    {
      "bufferView": 10,
      "componentType": 5126,
      "count": 600,
      "max": [
        1,
        1
      ],
      "min": [
        0,
        0
      ],
      "type": "VEC2"
    },
    {
      "bufferView": 11,
      "componentType": 5123,
      "count": 2148,
      "max": [
        599
      ],
      "min": [
        0
      ],
      "type": "SCALAR"
    }
  ],
  "meshes": [
    {
      "primitives": [
        {
          "mode": 4,
          "attributes": {
            "POSITION": 0,
            "NORMAL": 1,
            "TEXCOORD_0": 2
          },
          "extras": {
            "parameters": {
              "width": 83.59659415049651,
              "widthSegments": 1,
              "heightSegments": 1,
              "depthSegments": 1,
              "cornerRadius": 4,
              "cornerSegments": 8,
              "height": 83.59659415049651,
              "depth": 83.59659415049651,
              "type": "CubeGeometry"
            },
            "type": "CubeGeometry"
          },
          "indices": 3
        }
      ]
    },
    {
      "primitives": [
        {
          "mode": 4,
          "attributes": {
            "POSITION": 4,
            "NORMAL": 5,
            "TEXCOORD_0": 6
          },
          "extras": {
            "parameters": {
              "width": 172.4468368991434,
              "widthSegments": 1,
              "heightSegments": 1,
              "depthSegments": 1,
              "cornerRadius": 4,
              "cornerSegments": 8,
              "height": 172.4468368991434,
              "depth": 172.4468368991434,
              "type": "CubeGeometry"
            },
            "type": "CubeGeometry"
          },
          "indices": 7
        }
      ]
    },
    {
      "primitives": [
        {
          "mode": 4,
          "attributes": {
            "POSITION": 8,
            "NORMAL": 9,
            "TEXCOORD_0": 10
          },
          "extras": {
            "parameters": {
              "width": 465.3313238438423,
              "widthSegments": 1,
              "heightSegments": 1,
              "depthSegments": 1,
              "cornerRadius": 4,
              "cornerSegments": 8,
              "height": 31.122725789447554,
              "depth": 465.3313238438423,
              "type": "CubeGeometry"
            },
            "type": "CubeGeometry"
          },
          "indices": 11
        }
      ]
    }
  ],
  "extensions": {
    "KHR_lights_punctual": {
      "lights": [
        {
          "name": "Directional Light",
          "color": [
            1,
            1,
            1
          ],
          "intensity": 0.7,
          "type": "directional"
        }
      ]
    }
  },
  "cameras": [
    {
      "type": "orthographic",
      "orthographic": {
        "xmag": 11.786281566286325,
        "ymag": 5.715118821985713,
        "zfar": 100000,
        "znear": 0
      }
    }
  ],
  "extensionsUsed": [
    "KHR_lights_punctual"
  ]
}